<svg width="160" height="160" viewBox="0 0 160 160" fill="none" xmlns="http://www.w3.org/2000/svg">
<path d="M68.6214 11.7777C68.7737 11.8538 68.9157 11.9492 69.0439 12.0614L72.8508 15.3924L75.3508 17.8924L82.3508 26.3924L94.3508 42.3924L115.751 68.1699C116.131 68.6276 116.695 68.8924 117.29 68.8924H119.653C119.785 68.8924 119.916 68.8794 120.045 68.8536L121.906 68.4814C122.199 68.4228 122.475 68.2994 122.714 68.1202L124.148 67.0447C124.283 66.9436 124.404 66.8258 124.509 66.6941L126.047 64.7724C126.247 64.5227 126.384 64.2288 126.446 63.9152L127.351 59.3924L127.829 51.2638C127.843 51.0183 127.903 50.7776 128.005 50.5537L130.201 45.7226C130.3 45.5042 130.438 45.3055 130.607 45.136L136.661 39.0818C136.787 38.9561 136.929 38.8477 137.083 38.7595L140.211 36.9721C140.304 36.9191 140.401 36.8735 140.501 36.836L144.011 35.5197C144.236 35.4355 144.474 35.3924 144.714 35.3924H148.351L152.011 35.8499C152.236 35.878 152.454 35.9442 152.657 36.0456L155.958 37.6959C156.217 37.8254 156.444 38.0094 156.625 38.2354L157.913 39.8446C158.196 40.1992 158.351 40.6398 158.351 41.094V42.5072C158.351 42.7617 158.302 43.0138 158.208 43.25L157.351 45.3924L154.351 51.8924L151.351 59.3924L148.953 66.5845C148.885 66.7884 148.851 67.002 148.851 67.2169V72.8924L149.851 80.8924L151.351 89.8924L152.351 99.3924L153.33 109.673C153.344 109.819 153.342 109.966 153.324 110.111L152.351 117.892L150.425 125.596C150.376 125.792 150.297 125.98 150.191 126.153L144.934 134.756C144.879 134.847 144.816 134.933 144.746 135.014L138.954 141.772C138.885 141.852 138.811 141.927 138.73 141.995L129.017 150.251C128.907 150.345 128.786 150.427 128.658 150.495L120.511 154.807C120.405 154.864 120.293 154.911 120.178 154.947L111.145 157.8C110.95 157.861 110.747 157.892 110.543 157.892H98.131C97.9451 157.892 97.7602 157.866 97.5815 157.815L91.1123 155.967C90.9388 155.918 90.7728 155.845 90.6188 155.751L81.9924 150.479C81.8982 150.421 81.8089 150.356 81.7255 150.284L66.8508 137.392L54.8508 127.892L30.8508 105.392L24.5776 98.6366C24.4275 98.4749 24.3051 98.2895 24.2155 98.0879L22.5232 94.2802C22.4096 94.0245 22.3508 93.7478 22.3508 93.468V90.4979C22.3508 90.1031 22.4677 89.7171 22.6867 89.3885L24.1899 87.1337C24.2967 86.9737 24.4259 86.8299 24.5737 86.7067L26.915 84.7556C27.1999 84.5182 27.5453 84.3646 27.9125 84.3122L30.568 83.9328C30.7556 83.906 30.9461 83.906 31.1337 83.9328L34.0296 84.3465C34.2424 84.3769 34.4489 84.4414 34.6411 84.5375L38.1737 86.3038C38.2915 86.3627 38.4032 86.4331 38.5072 86.514L42.8508 89.8924L51.8508 98.3924L63.5334 109.101C63.7293 109.281 64.0072 109.34 64.2594 109.256C64.7677 109.087 64.9276 108.447 64.5587 108.058L27.8508 69.3924L22.0901 64.1117C21.9316 63.9664 21.7976 63.7966 21.6932 63.6087L19.5302 59.7152C19.4116 59.5018 19.3331 59.2685 19.2986 59.0268L18.8946 56.1988C18.8656 55.9957 18.868 55.7894 18.9017 55.5871L19.325 53.0472C19.3422 52.9442 19.3674 52.8426 19.4005 52.7435L20.1641 50.4527C20.286 50.087 20.511 49.7643 20.812 49.5234L22.8508 47.8924L25.0252 46.5878C25.2404 46.4587 25.4779 46.3712 25.7254 46.33L27.9061 45.9665C28.1989 45.9177 28.4989 45.9347 28.7844 46.0163L31.6721 46.8413C31.791 46.8753 31.9065 46.9202 32.0171 46.9755L35.5489 48.7414C35.7488 48.8414 35.9305 48.9741 36.0865 49.1341L55.3508 68.8924L72.0877 86.6138C72.2595 86.7957 72.4798 86.9246 72.7226 86.9853L73.2239 87.1107C73.7963 87.2538 74.3508 86.8208 74.3508 86.2307C74.3508 86.0125 74.2722 85.8016 74.1293 85.6367L54.8508 63.3924L35.8508 42.3924L29.9947 34.5842C29.8991 34.4568 29.8191 34.3184 29.7564 34.172L28.455 31.1355C28.3859 30.9741 28.3383 30.8044 28.3134 30.6305L27.8913 27.6752C27.8645 27.4876 27.8645 27.2972 27.8913 27.1096L28.2737 24.4327C28.3242 24.079 28.4686 23.7452 28.6918 23.4662L30.1922 21.5907C30.2976 21.459 30.4191 21.3412 30.554 21.2401L32.159 20.0362C32.2865 19.9407 32.4248 19.8607 32.5712 19.798L35.4735 18.5541C35.7225 18.4474 35.9905 18.3924 36.2614 18.3924H38.8197C39.1678 18.3924 39.5098 18.4832 39.812 18.6559L42.7155 20.315C42.8056 20.3665 42.8916 20.425 42.9726 20.4898L47.6885 24.2625C47.7964 24.3489 47.8951 24.4462 47.983 24.5529L54.8508 32.8924L82.3508 64.8924L86.8099 68.9056C87.1132 69.1785 87.577 69.1663 87.8654 68.8778C88.1418 68.6015 88.1661 68.1615 87.922 67.8563L82.3508 60.8924L60.8508 32.8924L56.9786 27.084C56.8937 26.9567 56.8237 26.8201 56.77 26.6768L55.4335 23.1129C55.3786 22.9664 55.341 22.814 55.3216 22.6587L54.8911 19.2144C54.8644 19.0011 54.8723 18.7849 54.9145 18.5741L55.2554 16.8696C55.3181 16.556 55.4551 16.2621 55.6548 16.0124L57.3508 13.8924L59.1213 12.1219C59.2734 11.9699 59.4489 11.8434 59.6411 11.7473L61.9286 10.6035C62.2063 10.4647 62.5125 10.3924 62.823 10.3924H65.3787C65.6892 10.3924 65.9954 10.4647 66.2731 10.6035L68.6214 11.7777Z" fill="#1269B0"/>
<path d="M1.19277 108.744C0.568542 107.418 1.53638 105.892 3.00241 105.892H4.61478C5.37232 105.892 6.06485 106.32 6.40363 106.998L8.7702 111.731C8.82385 111.838 8.88706 111.941 8.95905 112.037L11.8508 115.892L17.8508 122.392L23.727 128.269C23.8094 128.351 23.8988 128.426 23.9943 128.493L28.7301 131.808C28.8105 131.864 28.8949 131.914 28.9826 131.958L32.6397 133.787C33.3712 134.153 33.8063 134.927 33.7384 135.742L33.5023 138.574C33.4229 139.527 32.5085 140.182 31.581 139.95C31.4284 139.912 31.2826 139.851 31.1485 139.769L22.5164 134.494C22.4063 134.426 22.303 134.348 22.2078 134.261L10.5013 123.53C10.4012 123.439 10.3108 123.337 10.2314 123.227L3.95985 114.543C3.88734 114.443 3.82431 114.336 3.77157 114.224L1.19277 108.744Z" fill="#1269B0"/>
<path d="M12.9055 103.797C12.5205 102.514 13.4814 101.222 14.8211 101.222H15.6654C16.3963 101.222 17.0689 101.621 17.4198 102.262L19.0444 105.23C19.1034 105.338 19.1722 105.44 19.2499 105.535L24.8507 112.392L33.6625 120.715C33.7875 120.833 33.9271 120.934 34.078 121.016L38.4235 123.387C39.0037 123.703 39.3901 124.286 39.4558 124.943L39.7143 127.528C39.7873 128.258 39.2136 128.892 38.4794 128.892C38.2529 128.892 38.0306 128.83 37.8368 128.713L32.3507 125.392L26.2793 120.892L19.2928 114.372C19.1866 114.272 19.0916 114.162 19.0093 114.042L13.8106 106.481C13.693 106.31 13.6027 106.121 13.543 105.922L12.9055 103.797Z" fill="#1269B0"/>
<path d="M93.9861 7.82122C93.3104 7.26837 93.0714 6.34112 93.3956 5.53052L93.9046 4.25795C94.3863 3.05388 95.8688 2.6195 96.9241 3.37326L98.3508 4.3924L107.668 12.2383C107.789 12.3407 107.898 12.4572 107.992 12.5854L113.351 19.8924L117.254 26.2348C117.318 26.3397 117.373 26.4502 117.417 26.5651L119.851 32.8924L121.838 38.1902C122.328 39.4977 121.361 40.8924 119.965 40.8924H117.817C116.944 40.8924 116.172 40.3267 115.909 39.4947L113.415 31.5965C113.372 31.4608 113.315 31.3301 113.245 31.2065L109.351 24.3924L104.953 18.0407C104.885 17.942 104.808 17.8497 104.723 17.7649L98.3508 11.3924L93.9861 7.82122Z" fill="#1269B0"/>
<path d="M87.1867 16.9611C86.4176 16.3458 86.211 15.2622 86.6996 14.4071L86.7633 14.2957C87.3471 13.2739 88.6826 12.9746 89.6467 13.6495L92.8508 15.8924L98.7138 21.2668C98.805 21.3504 98.8882 21.4422 98.9624 21.5411L103.226 27.2263C103.309 27.3367 103.38 27.4554 103.439 27.5805L106.851 34.8924L108.973 41.2599C109.405 42.555 108.441 43.8924 107.076 43.8924H106.219C105.394 43.8924 104.654 43.386 104.355 42.6173L101.412 35.0508C101.371 34.9454 101.322 34.8437 101.263 34.7467L96.8508 27.3924L90.9897 20.0659C90.8974 19.9506 90.7927 19.8458 90.6773 19.7536L87.1867 16.9611Z" fill="#1269B0"/>
</svg>
