<svg width="160" height="160" viewBox="0 0 160 160" fill="none" xmlns="http://www.w3.org/2000/svg">
<mask id="mask0_2313_72" style="mask-type:alpha" maskUnits="userSpaceOnUse" x="4" y="6" width="151" height="149">
<path d="M45.7031 6C45.9006 6.00001 46.0974 6.01989 46.291 6.05859L53.1523 7.43066C53.383 7.47679 53.6077 7.54989 53.8213 7.64844L59.6807 10.3525C59.8929 10.4505 60.0926 10.5734 60.2764 10.7178L67 16L72.5 21.5L78.8682 29.6875C79.2777 30.2141 79.5 30.8622 79.5 31.5293C79.5 30.8622 79.7223 30.2141 80.1318 29.6875L86.5 21.5L92 16L98.7236 10.7178C98.9074 10.5734 99.1071 10.4505 99.3193 10.3525L105.179 7.64844C105.392 7.54989 105.617 7.47679 105.848 7.43066L112.709 6.05859C112.903 6.01989 113.099 6.00001 113.297 6H122.658C122.885 6 123.112 6.0261 123.333 6.07715L129.5 7.5L135.537 9.82227C135.844 9.94012 136.129 10.1072 136.381 10.3174L142 15L146.239 19.2393C146.413 19.4126 146.564 19.6062 146.69 19.8164L150.859 26.7656C150.953 26.9215 151.032 27.0857 151.096 27.2559L153.891 34.71C153.963 34.903 154.016 35.1029 154.047 35.3066L154.965 41.2734C154.988 41.4243 155 41.5768 155 41.7295V49.5L154.044 58.1035C154.015 58.3667 153.951 58.6247 153.854 58.8711L147.585 74.7832C147.528 74.9274 147.46 75.0674 147.382 75.2012L139 89.5L126.5 106L105.5 129L84.5 151L81.1621 154.338C81.0554 154.444 80.9253 154.525 80.7822 154.572C80.1516 154.782 79.5 154.313 79.5 153.648C79.5 154.313 78.8484 154.782 78.2178 154.572C78.0747 154.525 77.9446 154.444 77.8379 154.338L74.5 151L53.5 129L32.5 106L20 89.5L11.6182 75.2012C11.5398 75.0674 11.4719 74.9274 11.415 74.7832L5.14648 58.8711C5.04946 58.6247 4.98533 58.3667 4.95605 58.1035L4 49.5V41.7295C4 41.5768 4.01195 41.4243 4.03516 41.2734L4.95312 35.3066C4.98448 35.1029 5.037 34.903 5.10938 34.71L7.9043 27.2559C7.96812 27.0857 8.04711 26.9215 8.14062 26.7656L12.3096 19.8164C12.4357 19.6062 12.5875 19.4126 12.7607 19.2393L17 15L22.6191 10.3174C22.8713 10.1072 23.1565 9.94012 23.4629 9.82227L29.5 7.5L35.667 6.07715C35.8882 6.0261 36.1148 6 36.3418 6H45.7031Z" fill="#D9D9D9"/>
</mask>
<g mask="url(#mask0_2313_72)">
<rect width="160" height="160" fill="url(#paint0_linear_2313_72)"/>
</g>
<defs>
<linearGradient id="paint0_linear_2313_72" x1="160" y1="0" x2="-33.1177" y2="82.0926" gradientUnits="userSpaceOnUse">
<stop stop-color="#15B585"/>
<stop offset="1" stop-color="#0EA795"/>
</linearGradient>
</defs>
</svg>
