<svg width="160" height="160" viewBox="0 0 160 160" fill="none" xmlns="http://www.w3.org/2000/svg">
<path fill-rule="evenodd" clip-rule="evenodd" d="M82 10.5L84 11.5L86 13.5L160 141.5V144L159.5 146L158 148.5L156 150L153 151H7L4 150L2 148.5L0.5 146L0 144V141.5L74 13.5L76 11.5L78 10.5L80 10L82 10.5ZM78 116L76 116.5L74.5 117.5L73 119L71.5 121.5L71 123.5V125.5L71.5 127.5L73 130.5L74.5 132L76 132.5L78 133H82L84 132.5L85.5 132L87 130.5L88.5 127.5L89 125.5V123.5L88.5 121.5L87 119L85.5 117.5L84 116.5L82 116H78ZM72.5 42.5L74.5 103H85.5L87.5 42.5H72.5Z" fill="#FFCD00"/>
</svg>
